<svg width="29" height="20" viewBox="0 0 29 20" fill="none" xmlns="http://www.w3.org/2000/svg">
<path d="M18.945 0.229442H18.8869L18.4963 0.617183C22.5102 1.77896 24.4518 3.59277 24.4518 3.59277C21.8654 2.29885 19.5331 1.65261 17.2023 1.39121C15.5178 1.12982 13.8332 1.26778 12.41 1.39121H12.0223C11.1117 1.39121 9.17594 1.77896 6.58083 2.81439C5.6761 3.20794 5.15766 3.46498 5.15766 3.46498C5.15766 3.46498 7.09782 1.52482 11.3731 0.489389L11.1117 0.22799C11.1117 0.22799 7.87475 0.104552 4.37927 2.68659C4.37927 2.68659 0.883789 8.77427 0.883789 16.2793C0.883789 16.2793 2.81959 19.6485 8.13179 19.7763C8.13179 19.7763 8.90582 18.7437 9.69002 17.8361C6.70862 16.9299 5.54685 15.1176 5.54685 15.1176C5.54685 15.1176 5.8068 15.2453 6.19599 15.5053H6.31217C6.37026 15.5053 6.39785 15.5343 6.42835 15.5634V15.575C6.45884 15.6055 6.48643 15.6331 6.54452 15.6331C7.1835 15.8959 7.82247 16.1559 8.34527 16.4071C9.24709 16.7978 10.4074 17.187 11.8306 17.4455C13.6313 17.7069 15.6949 17.8332 18.0461 17.4455C19.2078 17.1841 20.3696 16.9285 21.5314 16.41C22.2865 16.0223 23.216 15.636 24.2369 14.9825C24.2369 14.9825 23.0751 16.7949 19.9674 17.701C20.6063 18.6029 21.5067 19.6368 21.5067 19.6368C26.8204 19.5207 28.8839 16.1515 29.0001 16.2953C29.0001 8.80187 25.4858 2.70256 25.4858 2.70256C22.3199 0.351428 19.3574 0.262842 18.8346 0.262842L18.9435 0.223633L18.945 0.229442ZM19.2703 8.77428C20.631 8.77428 21.7289 9.93605 21.7289 11.3592C21.7289 12.7926 20.6252 13.9543 19.2703 13.9543C17.9154 13.9543 16.8117 12.7926 16.8117 11.3708C16.816 9.9375 17.9212 8.78008 19.2703 8.78008V8.77428ZM10.4742 8.77428C11.8291 8.77428 12.9256 9.93605 12.9256 11.3592C12.9256 12.7926 11.8219 13.9543 10.467 13.9543C9.11204 13.9543 8.00836 12.7926 8.00836 11.3708C8.00836 9.9375 9.11204 8.78008 10.467 8.78008L10.4742 8.77428Z" fill="white"/>
</svg>
