<svg width="24" height="18" viewBox="0 0 24 18" fill="none" xmlns="http://www.w3.org/2000/svg">
<path d="M10.802 14.7698C10.8943 14.77 10.9857 14.7883 11.0709 14.8237C11.1562 14.8592 11.2336 14.9111 11.2988 14.9764C11.364 15.0418 11.4156 15.1194 11.4509 15.2047C11.4861 15.2901 11.5041 15.3815 11.504 15.4738C11.5038 15.5661 11.4855 15.6575 11.4501 15.7428C11.4146 15.828 11.3627 15.9054 11.2974 15.9706C11.232 16.0358 11.1544 16.0875 11.0691 16.1227C10.9837 16.1579 10.8923 16.176 10.8 16.1758C10.6135 16.1756 10.4348 16.1012 10.3032 15.9692C10.1715 15.8372 10.0977 15.6583 10.098 15.4718C10.0982 15.2854 10.1726 15.1067 10.3046 14.975C10.4366 14.8434 10.6155 14.7696 10.802 14.7698ZM21.826 10.4228C21.7337 10.4228 21.6423 10.4045 21.557 10.3691C21.4717 10.3337 21.3943 10.2819 21.329 10.2166C21.2638 10.1512 21.2121 10.0737 21.1768 9.98839C21.1415 9.90307 21.1234 9.81164 21.1235 9.71932C21.1235 9.627 21.1418 9.5356 21.1772 9.45033C21.2126 9.36507 21.2644 9.2876 21.3297 9.22237C21.3951 9.15714 21.4726 9.10541 21.5579 9.07014C21.6432 9.03487 21.7347 9.01676 21.827 9.01682C22.0134 9.01695 22.1922 9.09115 22.3239 9.22308C22.4557 9.35501 22.5296 9.53387 22.5295 9.72032C22.5293 9.90677 22.4552 10.0855 22.3232 10.2173C22.1913 10.349 22.0124 10.423 21.826 10.4228ZM21.826 7.54682C21.2496 7.54735 20.6969 7.77657 20.2893 8.18415C19.8817 8.59174 19.6525 9.1444 19.652 9.72082C19.652 9.95382 19.691 10.1858 19.767 10.4118L12.586 14.2348C12.3869 13.9457 12.1204 13.7093 11.8096 13.5461C11.4989 13.3829 11.153 13.2977 10.802 13.2978C9.97298 13.2978 9.21798 13.7728 8.85198 14.5138L2.40098 11.1118C1.71898 10.7538 1.20898 9.63182 1.26298 8.60982C1.29098 8.07682 1.47498 7.66282 1.75598 7.50282C1.93398 7.40282 2.14798 7.41082 2.37598 7.52982L2.41798 7.55282C4.12798 8.45282 9.72198 11.3998 9.95798 11.5088C10.321 11.6778 10.523 11.7458 11.143 11.4518L22.707 5.43782C22.877 5.37382 23.075 5.21082 23.075 4.96382C23.075 4.62182 22.721 4.48682 22.72 4.48682C22.062 4.17182 21.051 3.69882 20.065 3.23682C17.957 2.24982 15.568 1.13182 14.519 0.58182C13.613 0.10782 12.884 0.50782 12.754 0.58782L12.502 0.712821C7.77998 3.04782 1.45998 6.17782 1.09998 6.39682C0.456982 6.78882 0.0579816 7.56982 0.00598162 8.53882C-0.0740184 10.0758 0.708982 11.6788 1.82998 12.2658L8.65198 15.7838C8.72713 16.3006 8.9857 16.7731 9.38045 17.115C9.7752 17.4568 10.2798 17.6453 10.802 17.6458C11.3723 17.6449 11.9195 17.4201 12.3258 17.0199C12.7322 16.6197 12.9653 16.0761 12.975 15.5058L20.489 11.4328C20.869 11.7308 21.342 11.8938 21.826 11.8938C22.4024 11.8933 22.9551 11.6641 23.3626 11.2565C23.7702 10.8489 23.9995 10.2962 24 9.71982C23.9995 9.1434 23.7702 8.59074 23.3626 8.18315C22.9551 7.77557 22.4024 7.54635 21.826 7.54582" fill="white"/>
</svg>
