<svg width="24" height="14" viewBox="0 0 24 14" fill="none" xmlns="http://www.w3.org/2000/svg">
<path d="M13.4351 7.24735C13.4351 10.7603 10.6067 13.6082 7.11759 13.6082C3.62848 13.6082 0.800293 10.7611 0.800293 7.24735C0.800293 3.73357 3.62869 0.886719 7.11759 0.886719C10.6065 0.886719 13.4351 3.73443 13.4351 7.24735ZM20.3655 7.24735C20.3655 10.5543 18.9512 13.2349 17.2067 13.2349C15.4623 13.2349 14.048 10.5535 14.048 7.24735C14.048 3.94122 15.4623 1.25976 17.2067 1.25976C18.9512 1.25976 20.3655 3.94122 20.3655 7.24735ZM23.2001 7.24735C23.2001 10.2103 22.7026 12.612 22.0891 12.612C21.4756 12.612 20.9781 10.2094 20.9781 7.24735C20.9781 4.2853 21.4756 1.88272 22.0893 1.88272C22.7031 1.88272 23.2001 4.28466 23.2001 7.24735Z" fill="white"/>
</svg>
