<svg width="24" height="20" viewBox="0 0 24 20" fill="none" xmlns="http://www.w3.org/2000/svg">
<path d="M21.1281 4.76189C21.4356 11.5539 16.3707 19.127 7.40296 19.127C4.67558 19.127 2.13797 18.3282 0.000488281 16.9571C2.56311 17.2587 5.11985 16.5482 7.14994 14.9579C5.036 14.9182 3.25305 13.5222 2.63961 11.6039C3.39721 11.748 4.14158 11.7054 4.81975 11.5215C2.49691 11.0552 0.894905 8.96329 0.946393 6.72578C1.59661 7.08766 2.34245 7.30538 3.13242 7.33039C0.983169 5.89315 0.374142 3.05396 1.6378 0.882648C4.01948 3.80421 7.57802 5.72691 11.5911 5.92845C10.8865 2.90833 13.1799 0 16.2971 0C17.6843 0 18.9406 0.58549 19.8203 1.52551C20.9207 1.30926 21.9549 0.907657 22.889 0.354531C22.5271 1.48285 21.7622 2.42875 20.7663 3.02601C21.743 2.90833 22.6742 2.64942 23.5392 2.26546C22.8934 3.23049 22.074 4.08078 21.1281 4.76189Z" fill="white"/>
</svg>
